<?xml version="1.0" encoding="UTF-8" standalone="no"?><svg xmlns="http://www.w3.org/2000/svg" xmlns:xlink="http://www.w3.org/1999/xlink" contentStyleType="text/css" height="494px" preserveAspectRatio="none" style="width:1665px;height:494px;background:#FFFFFF;" version="1.1" viewBox="0 0 1665 494" width="1665px" zoomAndPan="magnify"><defs/><g><!--MD5=[4b69135971437704bde8bfd54d783d08]
class ViseGrip--><g id="elem_ViseGrip"><rect codeLine="4" fill="#F1F1F1" height="48" id="ViseGrip" rx="2.5" ry="2.5" style="stroke:#181818;stroke-width:0.5;" width="89" x="7" y="7"/><ellipse cx="22" cy="23" fill="#ADD1B2" rx="11" ry="11" style="stroke:#181818;stroke-width:1.0;"/><path d="M24.9688,28.6406 Q24.3906,28.9375 23.75,29.0781 Q23.1094,29.2344 22.4063,29.2344 Q19.9063,29.2344 18.5781,27.5938 Q17.2656,25.9375 17.2656,22.8125 Q17.2656,19.6875 18.5781,18.0313 Q19.9063,16.375 22.4063,16.375 Q23.1094,16.375 23.75,16.5313 Q24.4063,16.6875 24.9688,16.9844 L24.9688,19.7031 Q24.3438,19.125 23.75,18.8594 Q23.1563,18.5781 22.5313,18.5781 Q21.1875,18.5781 20.5,19.6563 Q19.8125,20.7188 19.8125,22.8125 Q19.8125,24.9063 20.5,25.9844 Q21.1875,27.0469 22.5313,27.0469 Q23.1563,27.0469 23.75,26.7813 Q24.3438,26.5 24.9688,25.9219 L24.9688,28.6406 Z " fill="#000000"/><text fill="#000000" font-family="sans-serif" font-size="14" lengthAdjust="spacing" textLength="57" x="36" y="27.8467">ViseGrip</text><line style="stroke:#181818;stroke-width:0.5;" x1="8" x2="95" y1="39" y2="39"/><line style="stroke:#181818;stroke-width:0.5;" x1="8" x2="95" y1="47" y2="47"/></g><!--MD5=[ab8b8fc43a7985d7028ee5865266bd95]
class Absord--><g id="elem_Absord"><rect codeLine="5" fill="#F1F1F1" height="48" id="Absord" rx="2.5" ry="2.5" style="stroke:#181818;stroke-width:0.5;" width="81" x="843" y="7"/><ellipse cx="858" cy="23" fill="#ADD1B2" rx="11" ry="11" style="stroke:#181818;stroke-width:1.0;"/><path d="M860.9688,28.6406 Q860.3906,28.9375 859.75,29.0781 Q859.1094,29.2344 858.4063,29.2344 Q855.9063,29.2344 854.5781,27.5938 Q853.2656,25.9375 853.2656,22.8125 Q853.2656,19.6875 854.5781,18.0313 Q855.9063,16.375 858.4063,16.375 Q859.1094,16.375 859.75,16.5313 Q860.4063,16.6875 860.9688,16.9844 L860.9688,19.7031 Q860.3438,19.125 859.75,18.8594 Q859.1563,18.5781 858.5313,18.5781 Q857.1875,18.5781 856.5,19.6563 Q855.8125,20.7188 855.8125,22.8125 Q855.8125,24.9063 856.5,25.9844 Q857.1875,27.0469 858.5313,27.0469 Q859.1563,27.0469 859.75,26.7813 Q860.3438,26.5 860.9688,25.9219 L860.9688,28.6406 Z " fill="#000000"/><text fill="#000000" font-family="sans-serif" font-size="14" lengthAdjust="spacing" textLength="49" x="872" y="27.8467">Absord</text><line style="stroke:#181818;stroke-width:0.5;" x1="844" x2="923" y1="39" y2="39"/><line style="stroke:#181818;stroke-width:0.5;" x1="844" x2="923" y1="47" y2="47"/></g><!--MD5=[0fcfd55f8e4316fad3c52f0adba87c86]
class Confusion--><g id="elem_Confusion"><rect codeLine="6" fill="#F1F1F1" height="48" id="Confusion" rx="2.5" ry="2.5" style="stroke:#181818;stroke-width:0.5;" width="102" x="131.5" y="7"/><ellipse cx="146.5" cy="23" fill="#ADD1B2" rx="11" ry="11" style="stroke:#181818;stroke-width:1.0;"/><path d="M149.4688,28.6406 Q148.8906,28.9375 148.25,29.0781 Q147.6094,29.2344 146.9063,29.2344 Q144.4063,29.2344 143.0781,27.5938 Q141.7656,25.9375 141.7656,22.8125 Q141.7656,19.6875 143.0781,18.0313 Q144.4063,16.375 146.9063,16.375 Q147.6094,16.375 148.25,16.5313 Q148.9063,16.6875 149.4688,16.9844 L149.4688,19.7031 Q148.8438,19.125 148.25,18.8594 Q147.6563,18.5781 147.0313,18.5781 Q145.6875,18.5781 145,19.6563 Q144.3125,20.7188 144.3125,22.8125 Q144.3125,24.9063 145,25.9844 Q145.6875,27.0469 147.0313,27.0469 Q147.6563,27.0469 148.25,26.7813 Q148.8438,26.5 149.4688,25.9219 L149.4688,28.6406 Z " fill="#000000"/><text fill="#000000" font-family="sans-serif" font-size="14" lengthAdjust="spacing" textLength="70" x="160.5" y="27.8467">Confusion</text><line style="stroke:#181818;stroke-width:0.5;" x1="132.5" x2="232.5" y1="39" y2="39"/><line style="stroke:#181818;stroke-width:0.5;" x1="132.5" x2="232.5" y1="47" y2="47"/></g><!--MD5=[e0d34b8da1b27a22ee12f3fa9a940b71]
class Discharge--><g id="elem_Discharge"><rect codeLine="7" fill="#F1F1F1" height="48" id="Discharge" rx="2.5" ry="2.5" style="stroke:#181818;stroke-width:0.5;" width="102" x="268.5" y="7"/><ellipse cx="283.5" cy="23" fill="#ADD1B2" rx="11" ry="11" style="stroke:#181818;stroke-width:1.0;"/><path d="M286.4688,28.6406 Q285.8906,28.9375 285.25,29.0781 Q284.6094,29.2344 283.9063,29.2344 Q281.4063,29.2344 280.0781,27.5938 Q278.7656,25.9375 278.7656,22.8125 Q278.7656,19.6875 280.0781,18.0313 Q281.4063,16.375 283.9063,16.375 Q284.6094,16.375 285.25,16.5313 Q285.9063,16.6875 286.4688,16.9844 L286.4688,19.7031 Q285.8438,19.125 285.25,18.8594 Q284.6563,18.5781 284.0313,18.5781 Q282.6875,18.5781 282,19.6563 Q281.3125,20.7188 281.3125,22.8125 Q281.3125,24.9063 282,25.9844 Q282.6875,27.0469 284.0313,27.0469 Q284.6563,27.0469 285.25,26.7813 Q285.8438,26.5 286.4688,25.9219 L286.4688,28.6406 Z " fill="#000000"/><text fill="#000000" font-family="sans-serif" font-size="14" lengthAdjust="spacing" textLength="70" x="297.5" y="27.8467">Discharge</text><line style="stroke:#181818;stroke-width:0.5;" x1="269.5" x2="369.5" y1="39" y2="39"/><line style="stroke:#181818;stroke-width:0.5;" x1="269.5" x2="369.5" y1="47" y2="47"/></g><!--MD5=[7198b14331aba6d6718a09475839d73e]
class IceBeam--><g id="elem_IceBeam"><rect codeLine="8" fill="#F1F1F1" height="48" id="IceBeam" rx="2.5" ry="2.5" style="stroke:#181818;stroke-width:0.5;" width="92" x="405.5" y="7"/><ellipse cx="420.5" cy="23" fill="#ADD1B2" rx="11" ry="11" style="stroke:#181818;stroke-width:1.0;"/><path d="M423.4688,28.6406 Q422.8906,28.9375 422.25,29.0781 Q421.6094,29.2344 420.9063,29.2344 Q418.4063,29.2344 417.0781,27.5938 Q415.7656,25.9375 415.7656,22.8125 Q415.7656,19.6875 417.0781,18.0313 Q418.4063,16.375 420.9063,16.375 Q421.6094,16.375 422.25,16.5313 Q422.9063,16.6875 423.4688,16.9844 L423.4688,19.7031 Q422.8438,19.125 422.25,18.8594 Q421.6563,18.5781 421.0313,18.5781 Q419.6875,18.5781 419,19.6563 Q418.3125,20.7188 418.3125,22.8125 Q418.3125,24.9063 419,25.9844 Q419.6875,27.0469 421.0313,27.0469 Q421.6563,27.0469 422.25,26.7813 Q422.8438,26.5 423.4688,25.9219 L423.4688,28.6406 Z " fill="#000000"/><text fill="#000000" font-family="sans-serif" font-size="14" lengthAdjust="spacing" textLength="60" x="434.5" y="27.8467">IceBeam</text><line style="stroke:#181818;stroke-width:0.5;" x1="406.5" x2="496.5" y1="39" y2="39"/><line style="stroke:#181818;stroke-width:0.5;" x1="406.5" x2="496.5" y1="47" y2="47"/></g><!--MD5=[d3618b13de0cf3a37c9c0e64b443ed1d]
class NaturesMadness--><g id="elem_NaturesMadness"><rect codeLine="9" fill="#F1F1F1" height="48" id="NaturesMadness" rx="2.5" ry="2.5" style="stroke:#181818;stroke-width:0.5;" width="149" x="533" y="7"/><ellipse cx="548" cy="23" fill="#ADD1B2" rx="11" ry="11" style="stroke:#181818;stroke-width:1.0;"/><path d="M550.9688,28.6406 Q550.3906,28.9375 549.75,29.0781 Q549.1094,29.2344 548.4063,29.2344 Q545.9063,29.2344 544.5781,27.5938 Q543.2656,25.9375 543.2656,22.8125 Q543.2656,19.6875 544.5781,18.0313 Q545.9063,16.375 548.4063,16.375 Q549.1094,16.375 549.75,16.5313 Q550.4063,16.6875 550.9688,16.9844 L550.9688,19.7031 Q550.3438,19.125 549.75,18.8594 Q549.1563,18.5781 548.5313,18.5781 Q547.1875,18.5781 546.5,19.6563 Q545.8125,20.7188 545.8125,22.8125 Q545.8125,24.9063 546.5,25.9844 Q547.1875,27.0469 548.5313,27.0469 Q549.1563,27.0469 549.75,26.7813 Q550.3438,26.5 550.9688,25.9219 L550.9688,28.6406 Z " fill="#000000"/><text fill="#000000" font-family="sans-serif" font-size="14" lengthAdjust="spacing" textLength="117" x="562" y="27.8467">NaturesMadness</text><line style="stroke:#181818;stroke-width:0.5;" x1="534" x2="681" y1="39" y2="39"/><line style="stroke:#181818;stroke-width:0.5;" x1="534" x2="681" y1="47" y2="47"/></g><!--MD5=[8f04cd01539bfb486903aadd5098775f]
class Thunder--><g id="elem_Thunder"><rect codeLine="10" fill="#F1F1F1" height="48" id="Thunder" rx="2.5" ry="2.5" style="stroke:#181818;stroke-width:0.5;" width="91" x="717" y="7"/><ellipse cx="732" cy="23" fill="#ADD1B2" rx="11" ry="11" style="stroke:#181818;stroke-width:1.0;"/><path d="M734.9688,28.6406 Q734.3906,28.9375 733.75,29.0781 Q733.1094,29.2344 732.4063,29.2344 Q729.9063,29.2344 728.5781,27.5938 Q727.2656,25.9375 727.2656,22.8125 Q727.2656,19.6875 728.5781,18.0313 Q729.9063,16.375 732.4063,16.375 Q733.1094,16.375 733.75,16.5313 Q734.4063,16.6875 734.9688,16.9844 L734.9688,19.7031 Q734.3438,19.125 733.75,18.8594 Q733.1563,18.5781 732.5313,18.5781 Q731.1875,18.5781 730.5,19.6563 Q729.8125,20.7188 729.8125,22.8125 Q729.8125,24.9063 730.5,25.9844 Q731.1875,27.0469 732.5313,27.0469 Q733.1563,27.0469 733.75,26.7813 Q734.3438,26.5 734.9688,25.9219 L734.9688,28.6406 Z " fill="#000000"/><text fill="#000000" font-family="sans-serif" font-size="14" lengthAdjust="spacing" textLength="59" x="746" y="27.8467">Thunder</text><line style="stroke:#181818;stroke-width:0.5;" x1="718" x2="807" y1="39" y2="39"/><line style="stroke:#181818;stroke-width:0.5;" x1="718" x2="807" y1="47" y2="47"/></g><!--MD5=[8762813957b7c82ce0feb903b63fd293]
class Confide--><g id="elem_Confide"><rect codeLine="11" fill="#F1F1F1" height="48" id="Confide" rx="2.5" ry="2.5" style="stroke:#181818;stroke-width:0.5;" width="85" x="1026" y="115"/><ellipse cx="1041" cy="131" fill="#ADD1B2" rx="11" ry="11" style="stroke:#181818;stroke-width:1.0;"/><path d="M1043.9688,136.6406 Q1043.3906,136.9375 1042.75,137.0781 Q1042.1094,137.2344 1041.4063,137.2344 Q1038.9063,137.2344 1037.5781,135.5938 Q1036.2656,133.9375 1036.2656,130.8125 Q1036.2656,127.6875 1037.5781,126.0313 Q1038.9063,124.375 1041.4063,124.375 Q1042.1094,124.375 1042.75,124.5313 Q1043.4063,124.6875 1043.9688,124.9844 L1043.9688,127.7031 Q1043.3438,127.125 1042.75,126.8594 Q1042.1563,126.5781 1041.5313,126.5781 Q1040.1875,126.5781 1039.5,127.6563 Q1038.8125,128.7188 1038.8125,130.8125 Q1038.8125,132.9063 1039.5,133.9844 Q1040.1875,135.0469 1041.5313,135.0469 Q1042.1563,135.0469 1042.75,134.7813 Q1043.3438,134.5 1043.9688,133.9219 L1043.9688,136.6406 Z " fill="#000000"/><text fill="#000000" font-family="sans-serif" font-size="14" lengthAdjust="spacing" textLength="53" x="1055" y="135.8467">Confide</text><line style="stroke:#181818;stroke-width:0.5;" x1="1027" x2="1110" y1="147" y2="147"/><line style="stroke:#181818;stroke-width:0.5;" x1="1027" x2="1110" y1="155" y2="155"/></g><!--MD5=[ccdc593ef2fe8aa782957f9a1a4e150f]
class DoubleTeam--><g id="elem_DoubleTeam"><rect codeLine="12" fill="#F1F1F1" height="48" id="DoubleTeam" rx="2.5" ry="2.5" style="stroke:#181818;stroke-width:0.5;" width="121" x="1146" y="115"/><ellipse cx="1161" cy="131" fill="#ADD1B2" rx="11" ry="11" style="stroke:#181818;stroke-width:1.0;"/><path d="M1163.9688,136.6406 Q1163.3906,136.9375 1162.75,137.0781 Q1162.1094,137.2344 1161.4063,137.2344 Q1158.9063,137.2344 1157.5781,135.5938 Q1156.2656,133.9375 1156.2656,130.8125 Q1156.2656,127.6875 1157.5781,126.0313 Q1158.9063,124.375 1161.4063,124.375 Q1162.1094,124.375 1162.75,124.5313 Q1163.4063,124.6875 1163.9688,124.9844 L1163.9688,127.7031 Q1163.3438,127.125 1162.75,126.8594 Q1162.1563,126.5781 1161.5313,126.5781 Q1160.1875,126.5781 1159.5,127.6563 Q1158.8125,128.7188 1158.8125,130.8125 Q1158.8125,132.9063 1159.5,133.9844 Q1160.1875,135.0469 1161.5313,135.0469 Q1162.1563,135.0469 1162.75,134.7813 Q1163.3438,134.5 1163.9688,133.9219 L1163.9688,136.6406 Z " fill="#000000"/><text fill="#000000" font-family="sans-serif" font-size="14" lengthAdjust="spacing" textLength="89" x="1175" y="135.8467">DoubleTeam</text><line style="stroke:#181818;stroke-width:0.5;" x1="1147" x2="1266" y1="147" y2="147"/><line style="stroke:#181818;stroke-width:0.5;" x1="1147" x2="1266" y1="155" y2="155"/></g><!--MD5=[bb2805e5b84cc4fb59a5cb4310d555c4]
class Swagger--><g id="elem_Swagger"><rect codeLine="13" fill="#F1F1F1" height="48" id="Swagger" rx="2.5" ry="2.5" style="stroke:#181818;stroke-width:0.5;" width="92" x="572.5" y="115"/><ellipse cx="587.5" cy="131" fill="#ADD1B2" rx="11" ry="11" style="stroke:#181818;stroke-width:1.0;"/><path d="M590.4688,136.6406 Q589.8906,136.9375 589.25,137.0781 Q588.6094,137.2344 587.9063,137.2344 Q585.4063,137.2344 584.0781,135.5938 Q582.7656,133.9375 582.7656,130.8125 Q582.7656,127.6875 584.0781,126.0313 Q585.4063,124.375 587.9063,124.375 Q588.6094,124.375 589.25,124.5313 Q589.9063,124.6875 590.4688,124.9844 L590.4688,127.7031 Q589.8438,127.125 589.25,126.8594 Q588.6563,126.5781 588.0313,126.5781 Q586.6875,126.5781 586,127.6563 Q585.3125,128.7188 585.3125,130.8125 Q585.3125,132.9063 586,133.9844 Q586.6875,135.0469 588.0313,135.0469 Q588.6563,135.0469 589.25,134.7813 Q589.8438,134.5 590.4688,133.9219 L590.4688,136.6406 Z " fill="#000000"/><text fill="#000000" font-family="sans-serif" font-size="14" lengthAdjust="spacing" textLength="60" x="601.5" y="135.8467">Swagger</text><line style="stroke:#181818;stroke-width:0.5;" x1="573.5" x2="663.5" y1="147" y2="147"/><line style="stroke:#181818;stroke-width:0.5;" x1="573.5" x2="663.5" y1="155" y2="155"/></g><!--MD5=[cb34cb218d248e4b40fe3c3dbdb7989d]
class SwordsDance--><g id="elem_SwordsDance"><rect codeLine="14" fill="#F1F1F1" height="48" id="SwordsDance" rx="2.5" ry="2.5" style="stroke:#181818;stroke-width:0.5;" width="128" x="699.5" y="115"/><ellipse cx="714.5" cy="131" fill="#ADD1B2" rx="11" ry="11" style="stroke:#181818;stroke-width:1.0;"/><path d="M717.4688,136.6406 Q716.8906,136.9375 716.25,137.0781 Q715.6094,137.2344 714.9063,137.2344 Q712.4063,137.2344 711.0781,135.5938 Q709.7656,133.9375 709.7656,130.8125 Q709.7656,127.6875 711.0781,126.0313 Q712.4063,124.375 714.9063,124.375 Q715.6094,124.375 716.25,124.5313 Q716.9063,124.6875 717.4688,124.9844 L717.4688,127.7031 Q716.8438,127.125 716.25,126.8594 Q715.6563,126.5781 715.0313,126.5781 Q713.6875,126.5781 713,127.6563 Q712.3125,128.7188 712.3125,130.8125 Q712.3125,132.9063 713,133.9844 Q713.6875,135.0469 715.0313,135.0469 Q715.6563,135.0469 716.25,134.7813 Q716.8438,134.5 717.4688,133.9219 L717.4688,136.6406 Z " fill="#000000"/><text fill="#000000" font-family="sans-serif" font-size="14" lengthAdjust="spacing" textLength="96" x="728.5" y="135.8467">SwordsDance</text><line style="stroke:#181818;stroke-width:0.5;" x1="700.5" x2="826.5" y1="147" y2="147"/><line style="stroke:#181818;stroke-width:0.5;" x1="700.5" x2="826.5" y1="155" y2="155"/></g><!--MD5=[6376db4f5ea676c8426c5a6c23fd0aaa]
class ThunderWave--><g id="elem_ThunderWave"><rect codeLine="15" fill="#F1F1F1" height="48" id="ThunderWave" rx="2.5" ry="2.5" style="stroke:#181818;stroke-width:0.5;" width="128" x="862.5" y="115"/><ellipse cx="877.5" cy="131" fill="#ADD1B2" rx="11" ry="11" style="stroke:#181818;stroke-width:1.0;"/><path d="M880.4688,136.6406 Q879.8906,136.9375 879.25,137.0781 Q878.6094,137.2344 877.9063,137.2344 Q875.4063,137.2344 874.0781,135.5938 Q872.7656,133.9375 872.7656,130.8125 Q872.7656,127.6875 874.0781,126.0313 Q875.4063,124.375 877.9063,124.375 Q878.6094,124.375 879.25,124.5313 Q879.9063,124.6875 880.4688,124.9844 L880.4688,127.7031 Q879.8438,127.125 879.25,126.8594 Q878.6563,126.5781 878.0313,126.5781 Q876.6875,126.5781 876,127.6563 Q875.3125,128.7188 875.3125,130.8125 Q875.3125,132.9063 876,133.9844 Q876.6875,135.0469 878.0313,135.0469 Q878.6563,135.0469 879.25,134.7813 Q879.8438,134.5 880.4688,133.9219 L880.4688,136.6406 Z " fill="#000000"/><text fill="#000000" font-family="sans-serif" font-size="14" lengthAdjust="spacing" textLength="96" x="891.5" y="135.8467">ThunderWave</text><line style="stroke:#181818;stroke-width:0.5;" x1="863.5" x2="989.5" y1="147" y2="147"/><line style="stroke:#181818;stroke-width:0.5;" x1="863.5" x2="989.5" y1="155" y2="155"/></g><!--MD5=[1981719fa3982d92ef7fd3f06d73b3e7]
class Move--><g id="elem_Move"><rect codeLine="17" fill="#F1F1F1" height="48" id="Move" rx="2.5" ry="2.5" style="stroke:#181818;stroke-width:0.5;" width="69" x="573" y="439"/><ellipse cx="588" cy="455" fill="#ADD1B2" rx="11" ry="11" style="stroke:#181818;stroke-width:1.0;"/><path d="M590.9688,460.6406 Q590.3906,460.9375 589.75,461.0781 Q589.1094,461.2344 588.4063,461.2344 Q585.9063,461.2344 584.5781,459.5938 Q583.2656,457.9375 583.2656,454.8125 Q583.2656,451.6875 584.5781,450.0313 Q585.9063,448.375 588.4063,448.375 Q589.1094,448.375 589.75,448.5313 Q590.4063,448.6875 590.9688,448.9844 L590.9688,451.7031 Q590.3438,451.125 589.75,450.8594 Q589.1563,450.5781 588.5313,450.5781 Q587.1875,450.5781 586.5,451.6563 Q585.8125,452.7188 585.8125,454.8125 Q585.8125,456.9063 586.5,457.9844 Q587.1875,459.0469 588.5313,459.0469 Q589.1563,459.0469 589.75,458.7813 Q590.3438,458.5 590.9688,457.9219 L590.9688,460.6406 Z " fill="#000000"/><text fill="#000000" font-family="sans-serif" font-size="14" lengthAdjust="spacing" textLength="37" x="602" y="459.8467">Move</text><line style="stroke:#181818;stroke-width:0.5;" x1="574" x2="641" y1="471" y2="471"/><line style="stroke:#181818;stroke-width:0.5;" x1="574" x2="641" y1="479" y2="479"/></g><!--MD5=[db283a5b9c36ba6592aebd07727008d2]
class PhysicalMove--><g id="elem_PhysicalMove"><rect codeLine="18" fill="#F1F1F1" height="48" id="PhysicalMove" rx="2.5" ry="2.5" style="stroke:#181818;stroke-width:0.5;" width="124" x="159.5" y="223"/><ellipse cx="174.5" cy="239" fill="#ADD1B2" rx="11" ry="11" style="stroke:#181818;stroke-width:1.0;"/><path d="M177.4688,244.6406 Q176.8906,244.9375 176.25,245.0781 Q175.6094,245.2344 174.9063,245.2344 Q172.4063,245.2344 171.0781,243.5938 Q169.7656,241.9375 169.7656,238.8125 Q169.7656,235.6875 171.0781,234.0313 Q172.4063,232.375 174.9063,232.375 Q175.6094,232.375 176.25,232.5313 Q176.9063,232.6875 177.4688,232.9844 L177.4688,235.7031 Q176.8438,235.125 176.25,234.8594 Q175.6563,234.5781 175.0313,234.5781 Q173.6875,234.5781 173,235.6563 Q172.3125,236.7188 172.3125,238.8125 Q172.3125,240.9063 173,241.9844 Q173.6875,243.0469 175.0313,243.0469 Q175.6563,243.0469 176.25,242.7813 Q176.8438,242.5 177.4688,241.9219 L177.4688,244.6406 Z " fill="#000000"/><text fill="#000000" font-family="sans-serif" font-size="14" lengthAdjust="spacing" textLength="92" x="188.5" y="243.8467">PhysicalMove</text><line style="stroke:#181818;stroke-width:0.5;" x1="160.5" x2="282.5" y1="255" y2="255"/><line style="stroke:#181818;stroke-width:0.5;" x1="160.5" x2="282.5" y1="263" y2="263"/></g><!--MD5=[845543be58ef7554cbcb0809d27ca463]
class CustomPhysicalMove--><g id="elem_CustomPhysicalMove"><rect codeLine="19" fill="#F1F1F1" height="48" id="CustomPhysicalMove" rx="2.5" ry="2.5" style="stroke:#181818;stroke-width:0.5;" width="178" x="57.5" y="115"/><ellipse cx="72.5" cy="131" fill="#ADD1B2" rx="11" ry="11" style="stroke:#181818;stroke-width:1.0;"/><path d="M75.4688,136.6406 Q74.8906,136.9375 74.25,137.0781 Q73.6094,137.2344 72.9063,137.2344 Q70.4063,137.2344 69.0781,135.5938 Q67.7656,133.9375 67.7656,130.8125 Q67.7656,127.6875 69.0781,126.0313 Q70.4063,124.375 72.9063,124.375 Q73.6094,124.375 74.25,124.5313 Q74.9063,124.6875 75.4688,124.9844 L75.4688,127.7031 Q74.8438,127.125 74.25,126.8594 Q73.6563,126.5781 73.0313,126.5781 Q71.6875,126.5781 71,127.6563 Q70.3125,128.7188 70.3125,130.8125 Q70.3125,132.9063 71,133.9844 Q71.6875,135.0469 73.0313,135.0469 Q73.6563,135.0469 74.25,134.7813 Q74.8438,134.5 75.4688,133.9219 L75.4688,136.6406 Z " fill="#000000"/><text fill="#000000" font-family="sans-serif" font-size="14" lengthAdjust="spacing" textLength="146" x="86.5" y="135.8467">CustomPhysicalMove</text><line style="stroke:#181818;stroke-width:0.5;" x1="58.5" x2="234.5" y1="147" y2="147"/><line style="stroke:#181818;stroke-width:0.5;" x1="58.5" x2="234.5" y1="155" y2="155"/></g><!--MD5=[f154dc322b9e05e08bf24454f55d077f]
class SpecialMove--><g id="elem_SpecialMove"><rect codeLine="20" fill="#F1F1F1" height="48" id="SpecialMove" rx="2.5" ry="2.5" style="stroke:#181818;stroke-width:0.5;" width="118" x="392.5" y="223"/><ellipse cx="407.5" cy="239" fill="#ADD1B2" rx="11" ry="11" style="stroke:#181818;stroke-width:1.0;"/><path d="M410.4688,244.6406 Q409.8906,244.9375 409.25,245.0781 Q408.6094,245.2344 407.9063,245.2344 Q405.4063,245.2344 404.0781,243.5938 Q402.7656,241.9375 402.7656,238.8125 Q402.7656,235.6875 404.0781,234.0313 Q405.4063,232.375 407.9063,232.375 Q408.6094,232.375 409.25,232.5313 Q409.9063,232.6875 410.4688,232.9844 L410.4688,235.7031 Q409.8438,235.125 409.25,234.8594 Q408.6563,234.5781 408.0313,234.5781 Q406.6875,234.5781 406,235.6563 Q405.3125,236.7188 405.3125,238.8125 Q405.3125,240.9063 406,241.9844 Q406.6875,243.0469 408.0313,243.0469 Q408.6563,243.0469 409.25,242.7813 Q409.8438,242.5 410.4688,241.9219 L410.4688,244.6406 Z " fill="#000000"/><text fill="#000000" font-family="sans-serif" font-size="14" lengthAdjust="spacing" textLength="86" x="421.5" y="243.8467">SpecialMove</text><line style="stroke:#181818;stroke-width:0.5;" x1="393.5" x2="509.5" y1="255" y2="255"/><line style="stroke:#181818;stroke-width:0.5;" x1="393.5" x2="509.5" y1="263" y2="263"/></g><!--MD5=[b445d6e6f26388ba248492fc871ff61c]
class CustomSpecialMove--><g id="elem_CustomSpecialMove"><rect codeLine="21" fill="#F1F1F1" height="48" id="CustomSpecialMove" rx="2.5" ry="2.5" style="stroke:#181818;stroke-width:0.5;" width="172" x="365.5" y="115"/><ellipse cx="380.5" cy="131" fill="#ADD1B2" rx="11" ry="11" style="stroke:#181818;stroke-width:1.0;"/><path d="M383.4688,136.6406 Q382.8906,136.9375 382.25,137.0781 Q381.6094,137.2344 380.9063,137.2344 Q378.4063,137.2344 377.0781,135.5938 Q375.7656,133.9375 375.7656,130.8125 Q375.7656,127.6875 377.0781,126.0313 Q378.4063,124.375 380.9063,124.375 Q381.6094,124.375 382.25,124.5313 Q382.9063,124.6875 383.4688,124.9844 L383.4688,127.7031 Q382.8438,127.125 382.25,126.8594 Q381.6563,126.5781 381.0313,126.5781 Q379.6875,126.5781 379,127.6563 Q378.3125,128.7188 378.3125,130.8125 Q378.3125,132.9063 379,133.9844 Q379.6875,135.0469 381.0313,135.0469 Q381.6563,135.0469 382.25,134.7813 Q382.8438,134.5 383.4688,133.9219 L383.4688,136.6406 Z " fill="#000000"/><text fill="#000000" font-family="sans-serif" font-size="14" lengthAdjust="spacing" textLength="140" x="394.5" y="135.8467">CustomSpecialMove</text><line style="stroke:#181818;stroke-width:0.5;" x1="366.5" x2="536.5" y1="147" y2="147"/><line style="stroke:#181818;stroke-width:0.5;" x1="366.5" x2="536.5" y1="155" y2="155"/></g><!--MD5=[2709603f7c8d17d5ad9b80c962ce556f]
class StatusMove--><g id="elem_StatusMove"><rect codeLine="22" fill="#F1F1F1" height="48" id="StatusMove" rx="2.5" ry="2.5" style="stroke:#181818;stroke-width:0.5;" width="113" x="710" y="331"/><ellipse cx="725" cy="347" fill="#ADD1B2" rx="11" ry="11" style="stroke:#181818;stroke-width:1.0;"/><path d="M727.9688,352.6406 Q727.3906,352.9375 726.75,353.0781 Q726.1094,353.2344 725.4063,353.2344 Q722.9063,353.2344 721.5781,351.5938 Q720.2656,349.9375 720.2656,346.8125 Q720.2656,343.6875 721.5781,342.0313 Q722.9063,340.375 725.4063,340.375 Q726.1094,340.375 726.75,340.5313 Q727.4063,340.6875 727.9688,340.9844 L727.9688,343.7031 Q727.3438,343.125 726.75,342.8594 Q726.1563,342.5781 725.5313,342.5781 Q724.1875,342.5781 723.5,343.6563 Q722.8125,344.7188 722.8125,346.8125 Q722.8125,348.9063 723.5,349.9844 Q724.1875,351.0469 725.5313,351.0469 Q726.1563,351.0469 726.75,350.7813 Q727.3438,350.5 727.9688,349.9219 L727.9688,352.6406 Z " fill="#000000"/><text fill="#000000" font-family="sans-serif" font-size="14" lengthAdjust="spacing" textLength="81" x="739" y="351.8467">StatusMove</text><line style="stroke:#181818;stroke-width:0.5;" x1="711" x2="822" y1="363" y2="363"/><line style="stroke:#181818;stroke-width:0.5;" x1="711" x2="822" y1="371" y2="371"/></g><!--MD5=[6290e762dc778230771ae4e2ce2d2acb]
class CustomStatusMove--><g id="elem_CustomStatusMove"><rect codeLine="23" fill="#F1F1F1" height="48" id="CustomStatusMove" rx="2.5" ry="2.5" style="stroke:#181818;stroke-width:0.5;" width="167" x="761" y="223"/><ellipse cx="776" cy="239" fill="#ADD1B2" rx="11" ry="11" style="stroke:#181818;stroke-width:1.0;"/><path d="M778.9688,244.6406 Q778.3906,244.9375 777.75,245.0781 Q777.1094,245.2344 776.4063,245.2344 Q773.9063,245.2344 772.5781,243.5938 Q771.2656,241.9375 771.2656,238.8125 Q771.2656,235.6875 772.5781,234.0313 Q773.9063,232.375 776.4063,232.375 Q777.1094,232.375 777.75,232.5313 Q778.4063,232.6875 778.9688,232.9844 L778.9688,235.7031 Q778.3438,235.125 777.75,234.8594 Q777.1563,234.5781 776.5313,234.5781 Q775.1875,234.5781 774.5,235.6563 Q773.8125,236.7188 773.8125,238.8125 Q773.8125,240.9063 774.5,241.9844 Q775.1875,243.0469 776.5313,243.0469 Q777.1563,243.0469 777.75,242.7813 Q778.3438,242.5 778.9688,241.9219 L778.9688,244.6406 Z " fill="#000000"/><text fill="#000000" font-family="sans-serif" font-size="14" lengthAdjust="spacing" textLength="135" x="790" y="243.8467">CustomStatusMove</text><line style="stroke:#181818;stroke-width:0.5;" x1="762" x2="927" y1="255" y2="255"/><line style="stroke:#181818;stroke-width:0.5;" x1="762" x2="927" y1="263" y2="263"/></g><!--MD5=[cbce687a05a9cd67b0897468438d0ab1]
class Pokemon--><g id="elem_Pokemon"><rect codeLine="27" fill="#F1F1F1" height="48" id="Pokemon" rx="2.5" ry="2.5" style="stroke:#181818;stroke-width:0.5;" width="98" x="1435.5" y="331"/><ellipse cx="1450.5" cy="347" fill="#ADD1B2" rx="11" ry="11" style="stroke:#181818;stroke-width:1.0;"/><path d="M1453.4688,352.6406 Q1452.8906,352.9375 1452.25,353.0781 Q1451.6094,353.2344 1450.9063,353.2344 Q1448.4063,353.2344 1447.0781,351.5938 Q1445.7656,349.9375 1445.7656,346.8125 Q1445.7656,343.6875 1447.0781,342.0313 Q1448.4063,340.375 1450.9063,340.375 Q1451.6094,340.375 1452.25,340.5313 Q1452.9063,340.6875 1453.4688,340.9844 L1453.4688,343.7031 Q1452.8438,343.125 1452.25,342.8594 Q1451.6563,342.5781 1451.0313,342.5781 Q1449.6875,342.5781 1449,343.6563 Q1448.3125,344.7188 1448.3125,346.8125 Q1448.3125,348.9063 1449,349.9844 Q1449.6875,351.0469 1451.0313,351.0469 Q1451.6563,351.0469 1452.25,350.7813 Q1452.8438,350.5 1453.4688,349.9219 L1453.4688,352.6406 Z " fill="#000000"/><text fill="#000000" font-family="sans-serif" font-size="14" lengthAdjust="spacing" textLength="66" x="1464.5" y="351.8467">Pokemon</text><line style="stroke:#181818;stroke-width:0.5;" x1="1436.5" x2="1532.5" y1="363" y2="363"/><line style="stroke:#181818;stroke-width:0.5;" x1="1436.5" x2="1532.5" y1="371" y2="371"/></g><!--MD5=[e459f0189de442b754688939b7f72bb3]
class Charjabug--><g id="elem_Charjabug"><rect codeLine="28" fill="#F1F1F1" height="48" id="Charjabug" rx="2.5" ry="2.5" style="stroke:#181818;stroke-width:0.5;" width="102" x="1302.5" y="115"/><ellipse cx="1317.5" cy="131" fill="#ADD1B2" rx="11" ry="11" style="stroke:#181818;stroke-width:1.0;"/><path d="M1320.4688,136.6406 Q1319.8906,136.9375 1319.25,137.0781 Q1318.6094,137.2344 1317.9063,137.2344 Q1315.4063,137.2344 1314.0781,135.5938 Q1312.7656,133.9375 1312.7656,130.8125 Q1312.7656,127.6875 1314.0781,126.0313 Q1315.4063,124.375 1317.9063,124.375 Q1318.6094,124.375 1319.25,124.5313 Q1319.9063,124.6875 1320.4688,124.9844 L1320.4688,127.7031 Q1319.8438,127.125 1319.25,126.8594 Q1318.6563,126.5781 1318.0313,126.5781 Q1316.6875,126.5781 1316,127.6563 Q1315.3125,128.7188 1315.3125,130.8125 Q1315.3125,132.9063 1316,133.9844 Q1316.6875,135.0469 1318.0313,135.0469 Q1318.6563,135.0469 1319.25,134.7813 Q1319.8438,134.5 1320.4688,133.9219 L1320.4688,136.6406 Z " fill="#000000"/><text fill="#000000" font-family="sans-serif" font-size="14" lengthAdjust="spacing" textLength="70" x="1331.5" y="135.8467">Charjabug</text><line style="stroke:#181818;stroke-width:0.5;" x1="1303.5" x2="1403.5" y1="147" y2="147"/><line style="stroke:#181818;stroke-width:0.5;" x1="1303.5" x2="1403.5" y1="155" y2="155"/></g><!--MD5=[a3585c2f214fe2f8203b02442f52c440]
class Grubbin--><g id="elem_Grubbin"><rect codeLine="29" fill="#F1F1F1" height="48" id="Grubbin" rx="2.5" ry="2.5" style="stroke:#181818;stroke-width:0.5;" width="87" x="1314" y="223"/><ellipse cx="1329" cy="239" fill="#ADD1B2" rx="11" ry="11" style="stroke:#181818;stroke-width:1.0;"/><path d="M1331.9688,244.6406 Q1331.3906,244.9375 1330.75,245.0781 Q1330.1094,245.2344 1329.4063,245.2344 Q1326.9063,245.2344 1325.5781,243.5938 Q1324.2656,241.9375 1324.2656,238.8125 Q1324.2656,235.6875 1325.5781,234.0313 Q1326.9063,232.375 1329.4063,232.375 Q1330.1094,232.375 1330.75,232.5313 Q1331.4063,232.6875 1331.9688,232.9844 L1331.9688,235.7031 Q1331.3438,235.125 1330.75,234.8594 Q1330.1563,234.5781 1329.5313,234.5781 Q1328.1875,234.5781 1327.5,235.6563 Q1326.8125,236.7188 1326.8125,238.8125 Q1326.8125,240.9063 1327.5,241.9844 Q1328.1875,243.0469 1329.5313,243.0469 Q1330.1563,243.0469 1330.75,242.7813 Q1331.3438,242.5 1331.9688,241.9219 L1331.9688,244.6406 Z " fill="#000000"/><text fill="#000000" font-family="sans-serif" font-size="14" lengthAdjust="spacing" textLength="55" x="1343" y="243.8467">Grubbin</text><line style="stroke:#181818;stroke-width:0.5;" x1="1315" x2="1400" y1="255" y2="255"/><line style="stroke:#181818;stroke-width:0.5;" x1="1315" x2="1400" y1="263" y2="263"/></g><!--MD5=[fab7633a286a226c573b7a32561c7401]
class Kabuto--><g id="elem_Kabuto"><rect codeLine="30" fill="#F1F1F1" height="48" id="Kabuto" rx="2.5" ry="2.5" style="stroke:#181818;stroke-width:0.5;" width="81" x="1444" y="223"/><ellipse cx="1459" cy="239" fill="#ADD1B2" rx="11" ry="11" style="stroke:#181818;stroke-width:1.0;"/><path d="M1461.9688,244.6406 Q1461.3906,244.9375 1460.75,245.0781 Q1460.1094,245.2344 1459.4063,245.2344 Q1456.9063,245.2344 1455.5781,243.5938 Q1454.2656,241.9375 1454.2656,238.8125 Q1454.2656,235.6875 1455.5781,234.0313 Q1456.9063,232.375 1459.4063,232.375 Q1460.1094,232.375 1460.75,232.5313 Q1461.4063,232.6875 1461.9688,232.9844 L1461.9688,235.7031 Q1461.3438,235.125 1460.75,234.8594 Q1460.1563,234.5781 1459.5313,234.5781 Q1458.1875,234.5781 1457.5,235.6563 Q1456.8125,236.7188 1456.8125,238.8125 Q1456.8125,240.9063 1457.5,241.9844 Q1458.1875,243.0469 1459.5313,243.0469 Q1460.1563,243.0469 1460.75,242.7813 Q1461.3438,242.5 1461.9688,241.9219 L1461.9688,244.6406 Z " fill="#000000"/><text fill="#000000" font-family="sans-serif" font-size="14" lengthAdjust="spacing" textLength="49" x="1473" y="243.8467">Kabuto</text><line style="stroke:#181818;stroke-width:0.5;" x1="1445" x2="1524" y1="255" y2="255"/><line style="stroke:#181818;stroke-width:0.5;" x1="1445" x2="1524" y1="263" y2="263"/></g><!--MD5=[53d57b6624128658bf2dad5cb22ab868]
class Kabutops--><g id="elem_Kabutops"><rect codeLine="31" fill="#F1F1F1" height="48" id="Kabutops" rx="2.5" ry="2.5" style="stroke:#181818;stroke-width:0.5;" width="98" x="1439.5" y="115"/><ellipse cx="1454.5" cy="131" fill="#ADD1B2" rx="11" ry="11" style="stroke:#181818;stroke-width:1.0;"/><path d="M1457.4688,136.6406 Q1456.8906,136.9375 1456.25,137.0781 Q1455.6094,137.2344 1454.9063,137.2344 Q1452.4063,137.2344 1451.0781,135.5938 Q1449.7656,133.9375 1449.7656,130.8125 Q1449.7656,127.6875 1451.0781,126.0313 Q1452.4063,124.375 1454.9063,124.375 Q1455.6094,124.375 1456.25,124.5313 Q1456.9063,124.6875 1457.4688,124.9844 L1457.4688,127.7031 Q1456.8438,127.125 1456.25,126.8594 Q1455.6563,126.5781 1455.0313,126.5781 Q1453.6875,126.5781 1453,127.6563 Q1452.3125,128.7188 1452.3125,130.8125 Q1452.3125,132.9063 1453,133.9844 Q1453.6875,135.0469 1455.0313,135.0469 Q1455.6563,135.0469 1456.25,134.7813 Q1456.8438,134.5 1457.4688,133.9219 L1457.4688,136.6406 Z " fill="#000000"/><text fill="#000000" font-family="sans-serif" font-size="14" lengthAdjust="spacing" textLength="66" x="1468.5" y="135.8467">Kabutops</text><line style="stroke:#181818;stroke-width:0.5;" x1="1440.5" x2="1536.5" y1="147" y2="147"/><line style="stroke:#181818;stroke-width:0.5;" x1="1440.5" x2="1536.5" y1="155" y2="155"/></g><!--MD5=[38149700ba2cbf212e3e88c288aec25d]
class TapuBulu--><g id="elem_TapuBulu"><rect codeLine="32" fill="#F1F1F1" height="48" id="TapuBulu" rx="2.5" ry="2.5" style="stroke:#181818;stroke-width:0.5;" width="98" x="1560.5" y="223"/><ellipse cx="1575.5" cy="239" fill="#ADD1B2" rx="11" ry="11" style="stroke:#181818;stroke-width:1.0;"/><path d="M1578.4688,244.6406 Q1577.8906,244.9375 1577.25,245.0781 Q1576.6094,245.2344 1575.9063,245.2344 Q1573.4063,245.2344 1572.0781,243.5938 Q1570.7656,241.9375 1570.7656,238.8125 Q1570.7656,235.6875 1572.0781,234.0313 Q1573.4063,232.375 1575.9063,232.375 Q1576.6094,232.375 1577.25,232.5313 Q1577.9063,232.6875 1578.4688,232.9844 L1578.4688,235.7031 Q1577.8438,235.125 1577.25,234.8594 Q1576.6563,234.5781 1576.0313,234.5781 Q1574.6875,234.5781 1574,235.6563 Q1573.3125,236.7188 1573.3125,238.8125 Q1573.3125,240.9063 1574,241.9844 Q1574.6875,243.0469 1576.0313,243.0469 Q1576.6563,243.0469 1577.25,242.7813 Q1577.8438,242.5 1578.4688,241.9219 L1578.4688,244.6406 Z " fill="#000000"/><text fill="#000000" font-family="sans-serif" font-size="14" lengthAdjust="spacing" textLength="66" x="1589.5" y="243.8467">TapuBulu</text><line style="stroke:#181818;stroke-width:0.5;" x1="1561.5" x2="1657.5" y1="255" y2="255"/><line style="stroke:#181818;stroke-width:0.5;" x1="1561.5" x2="1657.5" y1="263" y2="263"/></g><!--MD5=[1e0dbeef8eb90f4616e3742099fbeca1]
class Vikavolt--><g id="elem_Vikavolt"><rect codeLine="33" fill="#F1F1F1" height="48" id="Vikavolt" rx="2.5" ry="2.5" style="stroke:#181818;stroke-width:0.5;" width="84" x="1311.5" y="7"/><ellipse cx="1326.5" cy="23" fill="#ADD1B2" rx="11" ry="11" style="stroke:#181818;stroke-width:1.0;"/><path d="M1329.4688,28.6406 Q1328.8906,28.9375 1328.25,29.0781 Q1327.6094,29.2344 1326.9063,29.2344 Q1324.4063,29.2344 1323.0781,27.5938 Q1321.7656,25.9375 1321.7656,22.8125 Q1321.7656,19.6875 1323.0781,18.0313 Q1324.4063,16.375 1326.9063,16.375 Q1327.6094,16.375 1328.25,16.5313 Q1328.9063,16.6875 1329.4688,16.9844 L1329.4688,19.7031 Q1328.8438,19.125 1328.25,18.8594 Q1327.6563,18.5781 1327.0313,18.5781 Q1325.6875,18.5781 1325,19.6563 Q1324.3125,20.7188 1324.3125,22.8125 Q1324.3125,24.9063 1325,25.9844 Q1325.6875,27.0469 1327.0313,27.0469 Q1327.6563,27.0469 1328.25,26.7813 Q1328.8438,26.5 1329.4688,25.9219 L1329.4688,28.6406 Z " fill="#000000"/><text fill="#000000" font-family="sans-serif" font-size="14" lengthAdjust="spacing" textLength="52" x="1340.5" y="27.8467">Vikavolt</text><line style="stroke:#181818;stroke-width:0.5;" x1="1312.5" x2="1394.5" y1="39" y2="39"/><line style="stroke:#181818;stroke-width:0.5;" x1="1312.5" x2="1394.5" y1="47" y2="47"/></g><!--MD5=[e2b445d0d3d1a5b4d3e3b8bc95797d3f]
class Helper--><g id="elem_Helper"><rect codeLine="35" fill="#F1F1F1" height="48" id="Helper" rx="2.5" ry="2.5" style="stroke:#181818;stroke-width:0.5;" width="77" x="1431" y="7"/><ellipse cx="1446" cy="23" fill="#ADD1B2" rx="11" ry="11" style="stroke:#181818;stroke-width:1.0;"/><path d="M1448.9688,28.6406 Q1448.3906,28.9375 1447.75,29.0781 Q1447.1094,29.2344 1446.4063,29.2344 Q1443.9063,29.2344 1442.5781,27.5938 Q1441.2656,25.9375 1441.2656,22.8125 Q1441.2656,19.6875 1442.5781,18.0313 Q1443.9063,16.375 1446.4063,16.375 Q1447.1094,16.375 1447.75,16.5313 Q1448.4063,16.6875 1448.9688,16.9844 L1448.9688,19.7031 Q1448.3438,19.125 1447.75,18.8594 Q1447.1563,18.5781 1446.5313,18.5781 Q1445.1875,18.5781 1444.5,19.6563 Q1443.8125,20.7188 1443.8125,22.8125 Q1443.8125,24.9063 1444.5,25.9844 Q1445.1875,27.0469 1446.5313,27.0469 Q1447.1563,27.0469 1447.75,26.7813 Q1448.3438,26.5 1448.9688,25.9219 L1448.9688,28.6406 Z " fill="#000000"/><text fill="#000000" font-family="sans-serif" font-size="14" lengthAdjust="spacing" textLength="45" x="1460" y="27.8467">Helper</text><line style="stroke:#181818;stroke-width:0.5;" x1="1432" x2="1507" y1="39" y2="39"/><line style="stroke:#181818;stroke-width:0.5;" x1="1432" x2="1507" y1="47" y2="47"/></g><!--MD5=[84718776d214be480e4c259efcb737fc]
class Main--><g id="elem_Main"><rect codeLine="37" fill="#F1F1F1" height="48" id="Main" rx="2.5" ry="2.5" style="stroke:#181818;stroke-width:0.5;" width="64" x="1543.5" y="7"/><ellipse cx="1558.5" cy="23" fill="#ADD1B2" rx="11" ry="11" style="stroke:#181818;stroke-width:1.0;"/><path d="M1561.4688,28.6406 Q1560.8906,28.9375 1560.25,29.0781 Q1559.6094,29.2344 1558.9063,29.2344 Q1556.4063,29.2344 1555.0781,27.5938 Q1553.7656,25.9375 1553.7656,22.8125 Q1553.7656,19.6875 1555.0781,18.0313 Q1556.4063,16.375 1558.9063,16.375 Q1559.6094,16.375 1560.25,16.5313 Q1560.9063,16.6875 1561.4688,16.9844 L1561.4688,19.7031 Q1560.8438,19.125 1560.25,18.8594 Q1559.6563,18.5781 1559.0313,18.5781 Q1557.6875,18.5781 1557,19.6563 Q1556.3125,20.7188 1556.3125,22.8125 Q1556.3125,24.9063 1557,25.9844 Q1557.6875,27.0469 1559.0313,27.0469 Q1559.6563,27.0469 1560.25,26.7813 Q1560.8438,26.5 1561.4688,25.9219 L1561.4688,28.6406 Z " fill="#000000"/><text fill="#000000" font-family="sans-serif" font-size="14" lengthAdjust="spacing" textLength="32" x="1572.5" y="27.8467">Main</text><line style="stroke:#181818;stroke-width:0.5;" x1="1544.5" x2="1606.5" y1="39" y2="39"/><line style="stroke:#181818;stroke-width:0.5;" x1="1544.5" x2="1606.5" y1="47" y2="47"/></g><!--MD5=[7356ce3de45f02517f6c4b2cf56e2dbe]
class DamageMove--><g id="elem_DamageMove"><rect fill="#F1F1F1" height="48" id="DamageMove" rx="2.5" ry="2.5" style="stroke:#181818;stroke-width:0.5;" width="127" x="388" y="331"/><ellipse cx="403" cy="347" fill="#ADD1B2" rx="11" ry="11" style="stroke:#181818;stroke-width:1.0;"/><path d="M405.9688,352.6406 Q405.3906,352.9375 404.75,353.0781 Q404.1094,353.2344 403.4063,353.2344 Q400.9063,353.2344 399.5781,351.5938 Q398.2656,349.9375 398.2656,346.8125 Q398.2656,343.6875 399.5781,342.0313 Q400.9063,340.375 403.4063,340.375 Q404.1094,340.375 404.75,340.5313 Q405.4063,340.6875 405.9688,340.9844 L405.9688,343.7031 Q405.3438,343.125 404.75,342.8594 Q404.1563,342.5781 403.5313,342.5781 Q402.1875,342.5781 401.5,343.6563 Q400.8125,344.7188 400.8125,346.8125 Q400.8125,348.9063 401.5,349.9844 Q402.1875,351.0469 403.5313,351.0469 Q404.1563,351.0469 404.75,350.7813 Q405.3438,350.5 405.9688,349.9219 L405.9688,352.6406 Z " fill="#000000"/><text fill="#000000" font-family="sans-serif" font-size="14" lengthAdjust="spacing" textLength="95" x="417" y="351.8467">DamageMove</text><line style="stroke:#181818;stroke-width:0.5;" x1="389" x2="514" y1="363" y2="363"/><line style="stroke:#181818;stroke-width:0.5;" x1="389" x2="514" y1="371" y2="371"/></g><!--MD5=[df512b2feb4baea7343589e380948c1d]
link ViseGrip to CustomPhysicalMove--><g id="link_ViseGrip_CustomPhysicalMove"><path codeLine="39" d="M76.75,55.24 C76.75,55.24 76.75,94.84 76.75,94.84 " fill="none" id="ViseGrip-to-CustomPhysicalMove" style="stroke:#000082;stroke-width:1.0;"/><polygon fill="none" points="83.75,94.84,76.75,114.84,69.75,94.84,83.75,94.84" style="stroke:#000082;stroke-width:1.0;"/></g><!--MD5=[f0f63411f4410899759c9c3c94d269e8]
link Absord to CustomSpecialMove--><g id="link_Absord_CustomSpecialMove"><path codeLine="41" d="M852.75,55.2 C852.75,73.32 852.75,95 852.75,95 C852.75,95 524.12,95 524.12,95 C524.12,95 524.12,96.99 524.12,96.99 " fill="none" id="Absord-to-CustomSpecialMove" style="stroke:#000082;stroke-width:1.0;"/><polygon fill="none" points="531.13,94.94,524.12,114.94,517.13,94.94,531.13,94.94" style="stroke:#000082;stroke-width:1.0;"/></g><!--MD5=[da73c055cad890409309abbaaeee09c9]
link Confusion to CustomSpecialMove--><g id="link_Confusion_CustomSpecialMove"><path codeLine="42" d="M233.74,31 C244.16,31 252,31 252,31 C252,31 252,139 252,139 C252,139 345.45,139 345.45,139 " fill="none" id="Confusion-to-CustomSpecialMove" style="stroke:#000082;stroke-width:1.0;"/><polygon fill="none" points="345.45,132,365.45,139,345.45,146,345.45,132" style="stroke:#000082;stroke-width:1.0;"/></g><!--MD5=[632732c30bf7d6e12412828ee3d94a01]
link Discharge to CustomSpecialMove--><g id="link_Discharge_CustomSpecialMove"><path codeLine="43" d="M370.71,31 C380.62,31 388,31 388,31 C388,31 388,94.76 388,94.76 " fill="none" id="Discharge-to-CustomSpecialMove" style="stroke:#000082;stroke-width:1.0;"/><polygon fill="none" points="395,94.76,388,114.76,381,94.76,395,94.76" style="stroke:#000082;stroke-width:1.0;"/></g><!--MD5=[72fb80ef4bf648335060f403f6270b82]
link IceBeam to CustomSpecialMove--><g id="link_IceBeam_CustomSpecialMove"><path codeLine="44" d="M451.5,55.24 C451.5,55.24 451.5,94.84 451.5,94.84 " fill="none" id="IceBeam-to-CustomSpecialMove" style="stroke:#000082;stroke-width:1.0;"/><polygon fill="none" points="458.5,94.84,451.5,114.84,444.5,94.84,458.5,94.84" style="stroke:#000082;stroke-width:1.0;"/></g><!--MD5=[67466b3f1685b3caa080359ac65ebda3]
link NaturesMadness to CustomSpecialMove--><g id="link_NaturesMadness_CustomSpecialMove"><path codeLine="45" d="M532.94,31 C517.79,31 506.38,31 506.38,31 C506.38,31 506.38,94.76 506.38,94.76 " fill="none" id="NaturesMadness-to-CustomSpecialMove" style="stroke:#000082;stroke-width:1.0;"/><polygon fill="none" points="513.38,94.76,506.38,114.76,499.38,94.76,513.38,94.76" style="stroke:#000082;stroke-width:1.0;"/></g><!--MD5=[f9ec4f8e81918877956eb71e69055c62]
link Thunder to CustomSpecialMove--><g id="link_Thunder_CustomSpecialMove"><path codeLine="46" d="M762.5,55.06 C762.5,65.33 762.5,75 762.5,75 C762.5,75 515.25,75 515.25,75 C515.25,75 515.25,94.8 515.25,94.8 " fill="none" id="Thunder-to-CustomSpecialMove" style="stroke:#000082;stroke-width:1.0;"/><polygon fill="none" points="522.25,94.8,515.25,114.8,508.25,94.8,522.25,94.8" style="stroke:#000082;stroke-width:1.0;"/></g><!--MD5=[8d2dc927bb98c4f2d2a15eb0cf75e2b9]
link Confide to CustomStatusMove--><g id="link_Confide_CustomStatusMove"><path codeLine="48" d="M1068.5,163.21 C1068.5,192.8 1068.5,239 1068.5,239 C1068.5,239 948.23,239 948.23,239 " fill="none" id="Confide-to-CustomStatusMove" style="stroke:#000082;stroke-width:1.0;"/><polygon fill="none" points="948.23,246,928.23,239,948.23,232,948.23,246" style="stroke:#000082;stroke-width:1.0;"/></g><!--MD5=[1792b250aa6bdbbe148345eaf0ce9904]
link DoubleTeam to CustomStatusMove--><g id="link_DoubleTeam_CustomStatusMove"><path codeLine="49" d="M1206.5,163.04 C1206.5,197.01 1206.5,255 1206.5,255 C1206.5,255 948,255 948,255 " fill="none" id="DoubleTeam-to-CustomStatusMove" style="stroke:#000082;stroke-width:1.0;"/><polygon fill="none" points="948,262,928,255,948,248,948,262" style="stroke:#000082;stroke-width:1.0;"/></g><!--MD5=[f42717a4f7563f2d4b933e89e07c9f43]
link Swagger to CustomStatusMove--><g id="link_Swagger_CustomStatusMove"><path codeLine="50" d="M653.25,163.24 C653.25,195.08 653.25,247 653.25,247 C653.25,247 740.89,247 740.89,247 " fill="none" id="Swagger-to-CustomStatusMove" style="stroke:#000082;stroke-width:1.0;"/><polygon fill="none" points="740.89,240,760.89,247,740.89,254,740.89,240" style="stroke:#000082;stroke-width:1.0;"/></g><!--MD5=[24babbceb7ace12adba3d959fae9a130]
link SwordsDance to CustomStatusMove--><g id="link_SwordsDance_CustomStatusMove"><path codeLine="51" d="M794.25,163.24 C794.25,163.24 794.25,202.84 794.25,202.84 " fill="none" id="SwordsDance-to-CustomStatusMove" style="stroke:#000082;stroke-width:1.0;"/><polygon fill="none" points="801.25,202.84,794.25,222.84,787.25,202.84,801.25,202.84" style="stroke:#000082;stroke-width:1.0;"/></g><!--MD5=[182cbfe48f08c4f8c87ca1bb75f8939e]
link ThunderWave to CustomStatusMove--><g id="link_ThunderWave_CustomStatusMove"><path codeLine="52" d="M895.25,163.24 C895.25,163.24 895.25,202.84 895.25,202.84 " fill="none" id="ThunderWave-to-CustomStatusMove" style="stroke:#000082;stroke-width:1.0;"/><polygon fill="none" points="902.25,202.84,895.25,222.84,888.25,202.84,902.25,202.84" style="stroke:#000082;stroke-width:1.0;"/></g><!--MD5=[9edbf4a43c2ab29ff6d111fe9c1de0c1]
link StatusMove to Move--><g id="link_StatusMove_Move"><path codeLine="54" d="M709.89,347 C668.3,347 619,347 619,347 C619,347 619,418.96 619,418.96 " fill="none" id="StatusMove-to-Move" style="stroke:#000082;stroke-width:1.0;"/><polygon fill="none" points="626,418.96,619,438.96,612,418.96,626,418.96" style="stroke:#000082;stroke-width:1.0;"/></g><!--MD5=[7f9ae983ce133a3081840ec213f9c144]
link DamageMove to Move--><g id="link_DamageMove_Move"><path codeLine="55" d="M515.3,363 C554.01,363 596,363 596,363 C596,363 596,418.79 596,418.79 " fill="none" id="DamageMove-to-Move" style="stroke:#000082;stroke-width:1.0;"/><polygon fill="none" points="603,418.79,596,438.79,589,418.79,603,418.79" style="stroke:#000082;stroke-width:1.0;"/></g><!--MD5=[efd7770538658639573ddf8ce6f37ec7]
link PhysicalMove to DamageMove--><g id="link_PhysicalMove_DamageMove"><path codeLine="56" d="M221.5,271.24 C221.5,303.08 221.5,355 221.5,355 C221.5,355 367.74,355 367.74,355 " fill="none" id="PhysicalMove-to-DamageMove" style="stroke:#000082;stroke-width:1.0;"/><polygon fill="none" points="367.74,348,387.74,355,367.74,362,367.74,348" style="stroke:#000082;stroke-width:1.0;"/></g><!--MD5=[7b36f1ac6f007e811e38ce106739dd1b]
link SpecialMove to DamageMove--><g id="link_SpecialMove_DamageMove"><path codeLine="57" d="M451.5,271.24 C451.5,271.24 451.5,310.84 451.5,310.84 " fill="none" id="SpecialMove-to-DamageMove" style="stroke:#000082;stroke-width:1.0;"/><polygon fill="none" points="458.5,310.84,451.5,330.84,444.5,310.84,458.5,310.84" style="stroke:#000082;stroke-width:1.0;"/></g><!--MD5=[a699fc99735fdbb8a920df71375e6c18]
link CustomStatusMove to StatusMove--><g id="link_CustomStatusMove_StatusMove"><path codeLine="59" d="M792,271.24 C792,271.24 792,310.84 792,310.84 " fill="none" id="CustomStatusMove-to-StatusMove" style="stroke:#000082;stroke-width:1.0;"/><polygon fill="none" points="799,310.84,792,330.84,785,310.84,799,310.84" style="stroke:#000082;stroke-width:1.0;"/></g><!--MD5=[0bf88e835dd6155ef4cea9cf54852cf6]
link CustomPhysicalMove to PhysicalMove--><g id="link_CustomPhysicalMove_PhysicalMove"><path codeLine="60" d="M197.5,163.24 C197.5,163.24 197.5,202.84 197.5,202.84 " fill="none" id="CustomPhysicalMove-to-PhysicalMove" style="stroke:#000082;stroke-width:1.0;"/><polygon fill="none" points="204.5,202.84,197.5,222.84,190.5,202.84,204.5,202.84" style="stroke:#000082;stroke-width:1.0;"/></g><!--MD5=[267f4d1aa3eb59f8678970b0aff98e93]
link CustomSpecialMove to SpecialMove--><g id="link_CustomSpecialMove_SpecialMove"><path codeLine="61" d="M451.5,163.24 C451.5,163.24 451.5,202.84 451.5,202.84 " fill="none" id="CustomSpecialMove-to-SpecialMove" style="stroke:#000082;stroke-width:1.0;"/><polygon fill="none" points="458.5,202.84,451.5,222.84,444.5,202.84,458.5,202.84" style="stroke:#000082;stroke-width:1.0;"/></g><!--MD5=[3d3892c2a582aee1f6c6c50855e26536]
link Kabuto to Pokemon--><g id="link_Kabuto_Pokemon"><path codeLine="64" d="M1484.5,271.24 C1484.5,271.24 1484.5,310.84 1484.5,310.84 " fill="none" id="Kabuto-to-Pokemon" style="stroke:#000082;stroke-width:1.0;"/><polygon fill="none" points="1491.5,310.84,1484.5,330.84,1477.5,310.84,1491.5,310.84" style="stroke:#000082;stroke-width:1.0;"/></g><!--MD5=[f7d780e9bd4b0959716f994e59d8dfc8]
link Kabutops to Kabuto--><g id="link_Kabutops_Kabuto"><path codeLine="65" d="M1484.5,163.24 C1484.5,163.24 1484.5,202.84 1484.5,202.84 " fill="none" id="Kabutops-to-Kabuto" style="stroke:#000082;stroke-width:1.0;"/><polygon fill="none" points="1491.5,202.84,1484.5,222.84,1477.5,202.84,1491.5,202.84" style="stroke:#000082;stroke-width:1.0;"/></g><!--MD5=[de0c55339023ebe202f7bb2589842892]
link TapuBulu to Pokemon--><g id="link_TapuBulu_Pokemon"><path codeLine="67" d="M1560.05,247 C1543.53,247 1529.25,247 1529.25,247 C1529.25,247 1529.25,310.76 1529.25,310.76 " fill="none" id="TapuBulu-to-Pokemon" style="stroke:#000082;stroke-width:1.0;"/><polygon fill="none" points="1536.25,310.76,1529.25,330.76,1522.25,310.76,1536.25,310.76" style="stroke:#000082;stroke-width:1.0;"/></g><!--MD5=[4ebc442e5042ece42069512fa6b69de3]
link Grubbin to Pokemon--><g id="link_Grubbin_Pokemon"><path codeLine="69" d="M1357.5,271.24 C1357.5,303.08 1357.5,355 1357.5,355 C1357.5,355 1415.4,355 1415.4,355 " fill="none" id="Grubbin-to-Pokemon" style="stroke:#000082;stroke-width:1.0;"/><polygon fill="none" points="1415.4,348,1435.4,355,1415.4,362,1415.4,348" style="stroke:#000082;stroke-width:1.0;"/></g><!--MD5=[ce30b8e5200f78da904408c25fcc37e5]
link Charjabug to Grubbin--><g id="link_Charjabug_Grubbin"><path codeLine="70" d="M1357.5,163.24 C1357.5,163.24 1357.5,202.84 1357.5,202.84 " fill="none" id="Charjabug-to-Grubbin" style="stroke:#000082;stroke-width:1.0;"/><polygon fill="none" points="1364.5,202.84,1357.5,222.84,1350.5,202.84,1364.5,202.84" style="stroke:#000082;stroke-width:1.0;"/></g><!--MD5=[e756fcca63950c56721e460a06bd3696]
link Vikavolt to Charjabug--><g id="link_Vikavolt_Charjabug"><path codeLine="71" d="M1353.5,55.24 C1353.5,55.24 1353.5,94.84 1353.5,94.84 " fill="none" id="Vikavolt-to-Charjabug" style="stroke:#000082;stroke-width:1.0;"/><polygon fill="none" points="1360.5,94.84,1353.5,114.84,1346.5,94.84,1360.5,94.84" style="stroke:#000082;stroke-width:1.0;"/></g><!--MD5=[28804ce1882a1b58ac426fa470fe7b36]
@startuml
top to bottom direction
skinparam linetype ortho

class ViseGrip
class Absord
class Confusion
class Discharge
class IceBeam
class NaturesMadness
class Thunder
class Confide
class DoubleTeam
class Swagger
class SwordsDance
class ThunderWave

class Move
class PhysicalMove
class CustomPhysicalMove
class SpecialMove
class CustomSpecialMove
class StatusMove
class CustomStatusMove



class Pokemon
class Charjabug
class Grubbin
class Kabuto
class Kabutops
class TapuBulu
class Vikavolt

class Helper

class Main

ViseGrip        -[#000082,plain]-^  CustomPhysicalMove

Absord     -[#000082,plain]-^  CustomSpecialMove
Confusion    -[#000082,plain]-^  CustomSpecialMove
Discharge     -[#000082,plain]-^  CustomSpecialMove
IceBeam    -[#000082,plain]-^  CustomSpecialMove
NaturesMadness   -[#000082,plain]-^  CustomSpecialMove
Thunder   -[#000082,plain]-^  CustomSpecialMove

Confide       -[#000082,plain]-^  CustomStatusMove
DoubleTeam    -[#000082,plain]-^  CustomStatusMove
Swagger      -[#000082,plain]-^  CustomStatusMove
SwordsDance      -[#000082,plain]-^  CustomStatusMove
ThunderWave      -[#000082,plain]-^  CustomStatusMove

StatusMove    -[#000082,plain]-^  Move
DamageMove    -[#000082,plain]-^  Move
PhysicalMove  -[#000082,plain]-^  DamageMove
SpecialMove   -[#000082,plain]-^  DamageMove

CustomStatusMove    -[#000082,plain]-^  StatusMove
CustomPhysicalMove  -[#000082,plain]-^  PhysicalMove
CustomSpecialMove   -[#000082,plain]-^  SpecialMove


Kabuto         -[#000082,plain]-^  Pokemon
Kabutops       -[#000082,plain]-^  Kabuto

TapuBulu      -[#000082,plain]-^  Pokemon

Grubbin        -[#000082,plain]-^  Pokemon
Charjabug     -[#000082,plain]-^  Grubbin
Vikavolt      -[#000082,plain]-^  Charjabug
@enduml

PlantUML version 1.2022.7(Mon Aug 22 17:01:30 UTC 2022)
(GPL source distribution)
Java Runtime: OpenJDK Runtime Environment
JVM: OpenJDK 64-Bit Server VM
Default Encoding: UTF-8
Language: en
Country: null
--></g></svg>